<svg width="142" height="140" viewBox="0 0 142 140" fill="none" xmlns="http://www.w3.org/2000/svg">
<path d="M25.1458 1.12036e-05H116.854C120.157 -0.00311434 123.429 0.647752 126.481 1.91536C129.533 3.18297 132.306 5.04244 134.642 7.38734C136.978 9.73225 138.83 12.5166 140.092 15.5809C141.355 18.6453 142.003 21.9295 142 25.2457V113.754C142.003 117.07 141.355 120.355 140.092 123.419C138.83 126.483 136.978 129.268 134.642 131.613C132.306 133.958 129.533 135.817 126.481 137.085C123.429 138.352 120.157 139.003 116.854 139H25.1458C21.8428 139.003 18.5715 138.352 15.5193 137.085C12.467 135.817 9.69374 133.958 7.35811 131.613C5.02249 129.268 3.17038 126.483 1.90778 123.419C0.645189 120.355 -0.00310201 117.07 1.11593e-05 113.754V25.2457C-0.00310201 21.9295 0.645189 18.6453 1.90778 15.5809C3.17038 12.5166 5.02249 9.73225 7.35811 7.38734C9.69374 5.04244 12.467 3.18297 15.5193 1.91536C18.5715 0.647752 21.8428 -0.00311434 25.1458 1.12036e-05Z" fill="#E6E86E"/>
<path d="M71 11.6667H50.5833C45.1685 11.6667 39.9754 13.8178 36.1465 17.6467C32.3177 21.4755 30.1666 26.6686 30.1666 32.0834C30.1666 37.4983 32.3177 42.6913 36.1465 46.5202C39.9754 50.349 45.1685 52.5001 50.5833 52.5001M71 11.6667V52.5001M71 11.6667H91.4166C94.0978 11.6667 96.7527 12.1948 99.2297 13.2209C101.707 14.2469 103.958 15.7508 105.853 17.6467C107.749 19.5425 109.253 21.7932 110.279 24.2703C111.305 26.7474 111.833 29.4023 111.833 32.0834C111.833 34.7646 111.305 37.4195 110.279 39.8965C109.253 42.3736 107.749 44.6243 105.853 46.5202C103.958 48.416 101.707 49.9199 99.2297 50.946C96.7527 51.972 94.0978 52.5001 91.4166 52.5001M71 52.5001H50.5833M71 52.5001H91.4166M71 52.5001V93.3334M50.5833 52.5001C45.1685 52.5001 39.9754 54.6511 36.1465 58.48C32.3177 62.3089 30.1666 67.5019 30.1666 72.9167C30.1666 78.3316 32.3177 83.5246 36.1465 87.3535C39.9754 91.1824 45.1685 93.3334 50.5833 93.3334M91.4166 52.5001C88.7355 52.5001 86.0806 53.0282 83.6035 54.0542C81.1264 55.0802 78.8757 56.5841 76.9799 58.48C75.084 60.3758 73.5801 62.6266 72.5541 65.1036C71.5281 67.5807 71 70.2356 71 72.9167C71 75.5979 71.5281 78.2528 72.5541 80.7299C73.5801 83.2069 75.084 85.4576 76.9799 87.3535C78.8757 89.2494 81.1264 90.7533 83.6035 91.7793C86.0806 92.8053 88.7355 93.3334 91.4166 93.3334C94.0978 93.3334 96.7527 92.8053 99.2297 91.7793C101.707 90.7533 103.958 89.2494 105.853 87.3535C107.749 85.4576 109.253 83.2069 110.279 80.7299C111.305 78.2528 111.833 75.5979 111.833 72.9167C111.833 70.2356 111.305 67.5807 110.279 65.1036C109.253 62.6266 107.749 60.3758 105.853 58.48C103.958 56.5841 101.707 55.0802 99.2297 54.0542C96.7527 53.0282 94.0978 52.5001 91.4166 52.5001ZM50.5833 93.3334C45.1685 93.3334 39.9754 95.4844 36.1465 99.3133C32.3177 103.142 30.1666 108.335 30.1666 113.75C30.1666 119.165 32.3177 124.358 36.1465 128.187C39.9754 132.016 45.1685 134.167 50.5833 134.167C55.9981 134.167 61.1912 132.016 65.0201 128.187C68.8489 124.358 71 119.165 71 113.75V93.3334M50.5833 93.3334H71" stroke="#181F28" stroke-width="4" stroke-linecap="round" stroke-linejoin="round"/>
</svg>
