<svg width="142" height="139" viewBox="0 0 142 139" fill="none" xmlns="http://www.w3.org/2000/svg">
<g clip-path="url(#clip0_41_133)">
<path d="M25.1458 1.12036e-05H116.854C120.157 -0.00311434 123.429 0.647752 126.481 1.91536C129.533 3.18297 132.306 5.04244 134.642 7.38734C136.978 9.73225 138.83 12.5166 140.092 15.5809C141.355 18.6453 142.003 21.9295 142 25.2457V113.754C142.003 117.07 141.355 120.355 140.092 123.419C138.83 126.483 136.978 129.268 134.642 131.613C132.306 133.958 129.533 135.817 126.481 137.085C123.429 138.352 120.157 139.003 116.854 139H25.1458C21.8428 139.003 18.5715 138.352 15.5193 137.085C12.467 135.817 9.69374 133.958 7.35811 131.613C5.02249 129.268 3.17038 126.483 1.90778 123.419C0.645189 120.355 -0.00310201 117.07 1.11593e-05 113.754V25.2457C-0.00310201 21.9295 0.645189 18.6453 1.90778 15.5809C3.17038 12.5166 5.02249 9.73225 7.35811 7.38734C9.69374 5.04244 12.467 3.18297 15.5193 1.91536C18.5715 0.647752 21.8428 -0.00311434 25.1458 1.12036e-05Z" fill="#E6E86E"/>
<path d="M68.8109 83.3999H46.8009L42.3042 97.3593C42.254 97.6138 42.1108 97.8401 41.9028 97.994C41.6948 98.1479 41.437 98.2181 41.1801 98.1909H30.0567C29.4059 98.1909 29.2284 97.8345 29.4059 97.1217L48.4576 42.0563C48.6351 41.4623 48.8126 40.8089 49.0492 40.0961C49.2873 38.823 49.4062 37.5303 49.4042 36.235C49.3865 36.0862 49.4254 35.9362 49.5132 35.815C49.601 35.6938 49.7311 35.6104 49.8776 35.5815H65.2017C65.675 35.5815 65.9117 35.7597 65.9709 36.0568L87.5667 97.2405C87.7442 97.8939 87.5667 98.1909 86.9751 98.1909H74.6092C74.4001 98.2112 74.1905 98.1567 74.0174 98.0372C73.8443 97.9177 73.7186 97.7408 73.6626 97.5375L68.8109 83.3999ZM50.2326 71.3414H65.2609C64.9059 70.0939 64.4326 68.6089 63.9001 67.0644C63.3676 65.52 62.8351 63.738 62.3026 61.9559C61.7701 60.1739 61.1784 58.3324 60.5867 56.4909C59.9951 54.6495 59.4625 52.9268 58.9892 51.2042C58.5159 49.4815 58.1017 47.9965 57.6876 46.5709H57.5692C57.0375 49.1598 56.3659 51.7179 55.5576 54.2337C54.6701 57.085 53.7826 60.055 52.8359 63.0251C52.0076 66.0546 51.1201 68.8465 50.2326 71.3414Z" fill="#181F28"/>
<path d="M100.465 45.7393C99.4939 45.7606 98.5281 45.5878 97.6241 45.2309C96.7201 44.8739 95.8958 44.34 95.1992 43.6602C93.8436 42.1722 93.1216 40.2108 93.1875 38.1953C93.1526 37.2133 93.3242 36.2349 93.6912 35.3239C94.0583 34.413 94.6124 33.59 95.3175 32.9085C96.7397 31.559 98.6266 30.814 100.583 30.8295C102.891 30.8295 104.666 31.5423 105.968 32.9085C107.278 34.3489 107.979 36.2452 107.92 38.1953C107.956 39.1989 107.791 40.1996 107.436 41.1383C107.08 42.0769 106.541 42.9345 105.849 43.6602C105.152 44.3732 104.311 44.9277 103.382 45.2863C102.453 45.645 101.458 45.7995 100.465 45.7393ZM93.8384 97.3V51.5607C93.8384 50.9666 94.075 50.729 94.6075 50.729H106.323C106.855 50.729 107.092 51.026 107.092 51.5607V97.3C107.092 97.9534 106.855 98.2504 106.323 98.2504H94.7259C94.6015 98.2607 94.4765 98.2426 94.3601 98.1976C94.2436 98.1526 94.1388 98.0817 94.0535 97.9904C93.9682 97.899 93.9045 97.7894 93.8673 97.6699C93.83 97.5503 93.8201 97.4239 93.8384 97.3Z" fill="#181F28"/>
</g>
<defs>
<clipPath id="clip0_41_133">
<rect width="142" height="139" fill="white"/>
</clipPath>
</defs>
</svg>
