<svg width="1547" height="210" viewBox="0 0 1547 210" fill="none" xmlns="http://www.w3.org/2000/svg">
<path d="M43.174 94.8828H49.3417C61.0375 94.8828 69.5353 92.4674 74.8349 87.6367C80.1346 82.806 82.7844 75.0586 82.7844 64.3945C82.7844 54.5508 80.1346 47.3958 74.8349 42.9297C69.5353 38.3724 61.0375 36.0938 49.3417 36.0938H43.174V94.8828ZM0 204.668V4.51172H49.3417C75.6573 4.51172 95.0742 9.52474 107.592 19.5508C120.202 29.5768 126.507 45.0716 126.507 66.0352C126.507 85.4492 120.156 100.671 107.455 111.699C94.8457 122.728 77.3477 128.242 54.9612 128.242H43.174V204.668H0Z" fill="#E6E86E"/>
<path d="M361.702 105C361.702 119.31 359.007 132.845 353.616 145.605C348.316 158.366 340.641 169.577 330.59 179.238C320.173 189.173 308.431 196.784 295.365 202.07C282.299 207.357 268.775 210 254.795 210C242.551 210 230.535 207.949 218.748 203.848C207.052 199.655 196.316 193.685 186.539 185.938C173.93 175.911 164.244 163.926 157.482 149.98C150.812 136.035 147.477 121.042 147.477 105C147.477 90.599 150.127 77.1094 155.426 64.5312C160.726 51.862 168.493 40.6055 178.727 30.7617C188.778 21.0091 200.428 13.444 213.677 8.06641C227.018 2.6888 240.724 0 254.795 0C268.775 0 282.344 2.6888 295.502 8.06641C308.751 13.444 320.447 21.0091 330.59 30.7617C340.732 40.6055 348.453 51.862 353.753 64.5312C359.052 77.2005 361.702 90.6901 361.702 105ZM254.795 171.855C272.978 171.855 287.964 165.521 299.751 152.852C311.63 140.091 317.569 124.141 317.569 105C317.569 86.0417 311.584 70.0911 299.614 57.1484C287.644 44.2057 272.704 37.7344 254.795 37.7344C236.612 37.7344 221.535 44.2057 209.565 57.1484C197.595 70 191.61 85.9505 191.61 105C191.61 124.323 197.504 140.319 209.291 152.988C221.078 165.566 236.246 171.855 254.795 171.855Z" fill="#E6E86E"/>
<path d="M543.17 204.668H493.691L440.923 111.152V204.668H398.023V4.51172H459.426C483.823 4.51172 502.098 9.2513 514.25 18.7305C526.403 28.1185 532.479 42.2917 532.479 61.25C532.479 75.013 528.322 86.7708 520.007 96.5234C511.692 106.276 500.956 111.973 487.798 113.613L543.17 204.668ZM440.923 89.8242H447.365C464.726 89.8242 476.193 87.9557 481.767 84.2188C487.341 80.3906 490.128 73.7826 490.128 64.3945C490.128 54.5508 487.112 47.5781 481.082 43.4766C475.142 39.2839 463.904 37.1875 447.365 37.1875H440.923V89.8242Z" fill="#E6E86E"/>
<path d="M643.224 40.8789V204.668H600.187V40.8789H551.12V4.51172H692.566V40.8789H643.224Z" fill="#E6E86E"/>
<path d="M720.389 204.668V4.51172H838.535V40.6055H763.289V81.7578H838.535V118.125H763.289V204.668H720.389Z" fill="#E6E86E"/>
<path d="M1077.16 105C1077.16 119.31 1074.46 132.845 1069.07 145.605C1063.77 158.366 1056.1 169.577 1046.04 179.238C1035.63 189.173 1023.89 196.784 1010.82 202.07C997.754 207.357 984.23 210 970.25 210C958.006 210 945.99 207.949 934.203 203.848C922.507 199.655 911.771 193.685 901.994 185.938C889.384 175.911 879.699 163.926 872.937 149.98C866.267 136.035 862.932 121.042 862.932 105C862.932 90.599 865.582 77.1094 870.881 64.5312C876.181 51.862 883.948 40.6055 894.182 30.7617C904.233 21.0091 915.883 13.444 929.132 8.06641C942.473 2.6888 956.179 0 970.25 0C984.23 0 997.799 2.6888 1010.96 8.06641C1024.21 13.444 1035.9 21.0091 1046.04 30.7617C1056.19 40.6055 1063.91 51.862 1069.21 64.5312C1074.51 77.2005 1077.16 90.6901 1077.16 105ZM970.25 171.855C988.433 171.855 1003.42 165.521 1015.21 152.852C1027.08 140.091 1033.02 124.141 1033.02 105C1033.02 86.0417 1027.04 70.0911 1015.07 57.1484C1003.1 44.2057 988.159 37.7344 970.25 37.7344C952.067 37.7344 936.99 44.2057 925.02 57.1484C913.05 70 907.065 85.9505 907.065 105C907.065 124.323 912.959 140.319 924.746 152.988C936.533 165.566 951.701 171.855 970.25 171.855Z" fill="#E6E86E"/>
<path d="M1113.48 204.668V4.51172H1156.38V168.301H1224.91V204.668H1113.48Z" fill="#E6E86E"/>
<path d="M1252.73 204.668V4.51172H1295.63V204.668H1252.73Z" fill="#E6E86E"/>
<path d="M1547 105C1547 119.31 1544.3 132.845 1538.91 145.605C1533.61 158.366 1525.94 169.577 1515.89 179.238C1505.47 189.173 1493.73 196.784 1480.66 202.07C1467.6 207.357 1454.07 210 1440.09 210C1427.85 210 1415.83 207.949 1404.05 203.848C1392.35 199.655 1381.61 193.685 1371.84 185.938C1359.23 175.911 1349.54 163.926 1342.78 149.98C1336.11 136.035 1332.77 121.042 1332.77 105C1332.77 90.599 1335.42 77.1094 1340.72 64.5312C1346.02 51.862 1353.79 40.6055 1364.02 30.7617C1374.08 21.0091 1385.73 13.444 1398.97 8.06641C1412.32 2.6888 1426.02 0 1440.09 0C1454.07 0 1467.64 2.6888 1480.8 8.06641C1494.05 13.444 1505.74 21.0091 1515.89 30.7617C1526.03 40.6055 1533.75 51.862 1539.05 64.5312C1544.35 77.2005 1547 90.6901 1547 105ZM1440.09 171.855C1458.28 171.855 1473.26 165.521 1485.05 152.852C1496.93 140.091 1502.87 124.141 1502.87 105C1502.87 86.0417 1496.88 70.0911 1484.91 57.1484C1472.94 44.2057 1458 37.7344 1440.09 37.7344C1421.91 37.7344 1406.83 44.2057 1394.86 57.1484C1382.89 70 1376.91 85.9505 1376.91 105C1376.91 124.323 1382.8 140.319 1394.59 152.988C1406.38 165.566 1421.54 171.855 1440.09 171.855Z" fill="#E6E86E"/>
</svg>
