<svg width="142" height="139" viewBox="0 0 142 139" fill="none" xmlns="http://www.w3.org/2000/svg">
<g clip-path="url(#clip0_42_159)">
<path d="M25.1458 1.12036e-05H116.854C120.157 -0.00311434 123.429 0.647752 126.481 1.91536C129.533 3.18297 132.306 5.04244 134.642 7.38734C136.978 9.73225 138.83 12.5166 140.092 15.5809C141.355 18.6453 142.003 21.9295 142 25.2457V113.754C142.003 117.07 141.355 120.355 140.092 123.419C138.83 126.483 136.978 129.268 134.642 131.613C132.306 133.958 129.533 135.817 126.481 137.085C123.429 138.352 120.157 139.003 116.854 139H25.1458C21.8428 139.003 18.5715 138.352 15.5193 137.085C12.467 135.817 9.69374 133.958 7.35811 131.613C5.02249 129.268 3.17038 126.483 1.90778 123.419C0.645189 120.355 -0.00310201 117.07 1.11593e-05 113.754V25.2457C-0.00310201 21.9295 0.645189 18.6453 1.90778 15.5809C3.17038 12.5166 5.02249 9.73225 7.35811 7.38734C9.69374 5.04244 12.467 3.18297 15.5193 1.91536C18.5715 0.647752 21.8428 -0.00311434 25.1458 1.12036e-05Z" fill="#E6E86E"/>
<path d="M57.0367 83.1623H35.0267L30.53 97.1811C30.4798 97.4356 30.3366 97.662 30.1286 97.8158C29.9206 97.9697 29.6628 98.0399 29.4059 98.0128H18.2825C17.6317 98.0128 17.4542 97.6563 17.6317 96.9435L36.6834 42.1157C36.8609 41.5217 37.0384 40.9871 37.275 40.2743C37.5132 39.0012 37.632 37.7085 37.63 36.4132C37.6123 36.2644 37.6512 36.1144 37.739 35.9932C37.8268 35.8721 37.9569 35.7887 38.1034 35.7598H53.4275C53.8417 35.7598 54.1375 35.938 54.1967 36.235L75.7925 97.1217C75.97 97.7752 75.7925 98.0722 75.2009 98.0722H62.835C62.6259 98.0924 62.4164 98.038 62.2432 97.9185C62.0701 97.799 61.9445 97.622 61.8884 97.4187L57.0367 83.1623ZM38.4584 71.3414H53.4867C53.1317 70.094 52.6584 68.6089 52.1259 67.0645C51.5934 65.52 51.0609 63.738 50.5284 61.9559C49.9959 60.1739 49.4042 58.3324 48.8125 56.491C48.2209 54.6495 47.6884 52.9269 47.215 51.2042C46.7417 49.4816 46.3275 47.9965 45.9134 46.5709H45.795C45.2633 49.1599 44.5918 51.7179 43.7834 54.2337C42.8959 57.085 42.0084 60.0551 41.0617 63.0251C40.2925 66.0546 39.3459 68.8465 38.4584 71.3414Z" fill="#181F28"/>
<path d="M110.878 77.6974H92.1226C92.3464 79.572 92.9721 81.3756 93.9567 82.9842C95.0023 84.5852 96.5089 85.8284 98.2759 86.5483C100.667 87.5751 103.249 88.0813 105.849 88.0333C107.915 87.9953 109.974 87.7767 112.003 87.3799C113.807 87.1427 115.575 86.6839 117.268 86.0137C117.564 85.7761 117.742 85.8949 117.742 86.4889V95.5773C117.731 95.8189 117.692 96.0583 117.623 96.2902C117.516 96.4568 117.375 96.5986 117.209 96.706C115.317 97.5403 113.33 98.1388 111.293 98.488C108.525 99.0224 105.709 99.2613 102.891 99.2008C98.3942 99.2008 94.6076 98.488 91.5309 97.1218C88.6357 95.8602 86.0806 93.926 84.0759 91.4786C82.2026 89.1901 80.8135 86.5424 79.9934 83.697C78.2597 77.7708 78.3421 71.458 80.2301 65.5795C81.1736 62.6053 82.6803 59.842 84.6676 57.4414C86.6242 55.0677 89.0656 53.1433 91.8267 51.7983C94.6076 50.432 97.9209 49.9568 101.708 49.9568C104.862 49.8833 107.994 50.5122 110.878 51.7983C113.302 52.8533 115.434 54.4842 117.091 56.5504C118.664 58.5793 119.866 60.872 120.641 63.3222C121.393 65.6634 121.773 68.1092 121.765 70.5692C121.765 71.9949 121.706 73.2423 121.647 74.3709C121.588 75.4996 121.469 76.3312 121.41 76.8658C121.384 77.0716 121.287 77.2616 121.135 77.4027C120.984 77.5439 120.788 77.6271 120.582 77.638C120.227 77.638 119.576 77.6974 118.629 77.7568C117.49 77.8867 116.344 77.9462 115.198 77.935C113.837 77.935 112.417 77.6974 110.878 77.6974ZM92.1226 69.0248H104.607C106.145 69.0248 107.269 69.0248 107.979 68.9654C108.466 68.9247 108.934 68.7612 109.34 68.4902V67.8961C109.342 67.1489 109.223 66.4064 108.985 65.6983C108.467 64.0729 107.437 62.6607 106.049 61.6749C104.662 60.6891 102.992 60.1831 101.293 60.2333C99.6877 60.1429 98.0902 60.5211 96.6938 61.3222C95.2974 62.1233 94.1619 63.313 93.4242 64.7479C92.734 66.0818 92.2928 67.5313 92.1226 69.0248Z" fill="#181F28"/>
</g>
<defs>
<clipPath id="clip0_42_159">
<rect width="142" height="139" fill="white"/>
</clipPath>
</defs>
</svg>
