<svg width="142" height="139" viewBox="0 0 142 139" fill="none" xmlns="http://www.w3.org/2000/svg">
<path d="M25.1458 1.12036e-05H116.854C120.157 -0.00311434 123.429 0.647752 126.481 1.91536C129.533 3.18297 132.306 5.04244 134.642 7.38734C136.978 9.73225 138.83 12.5166 140.092 15.5809C141.355 18.6453 142.003 21.9295 142 25.2457V113.754C142.003 117.07 141.355 120.355 140.092 123.419C138.83 126.483 136.978 129.268 134.642 131.613C132.306 133.958 129.533 135.817 126.481 137.085C123.429 138.352 120.157 139.003 116.854 139H25.1458C21.8428 139.003 18.5715 138.352 15.5193 137.085C12.467 135.817 9.69374 133.958 7.35811 131.613C5.02249 129.268 3.17038 126.483 1.90778 123.419C0.645189 120.355 -0.00310201 117.07 1.11593e-05 113.754V25.2457C-0.00310201 21.9295 0.645189 18.6453 1.90778 15.5809C3.17038 12.5166 5.02249 9.73225 7.35811 7.38734C9.69374 5.04244 12.467 3.18297 15.5193 1.91536C18.5715 0.647752 21.8428 -0.00311434 25.1458 1.12036e-05Z" fill="#E6E86E"/>
<g clip-path="url(#clip0_48_281)">
<path d="M36.5263 17V24H106.474V17H36.5263ZM106.474 24V31H113.474V24H106.474ZM113.474 31V94H106.474V101H36.5263V94H29.5263V31H22.5394V108H29.5351V115H36.5307V122H106.478V115H113.478V108H120.469V31H113.474ZM29.5307 31H36.5263V24H29.5263L29.5307 31ZM50.5132 45V73H57.5132V45H50.5132ZM85.4913 45V73H92.4869V45H85.4913Z" fill="#181F28"/>
</g>
<defs>
<clipPath id="clip0_48_281">
<rect width="105" height="105" fill="white" transform="translate(19 17)"/>
</clipPath>
</defs>
</svg>
