<svg width="142" height="139" viewBox="0 0 142 139" fill="none" xmlns="http://www.w3.org/2000/svg">
<path d="M25.1458 1.12036e-05H116.854C120.157 -0.00311434 123.429 0.647752 126.481 1.91536C129.533 3.18297 132.306 5.04244 134.642 7.38734C136.978 9.73225 138.83 12.5166 140.092 15.5809C141.355 18.6453 142.003 21.9295 142 25.2457V113.754C142.003 117.07 141.355 120.355 140.092 123.419C138.83 126.483 136.978 129.268 134.642 131.613C132.306 133.958 129.533 135.817 126.481 137.085C123.429 138.352 120.157 139.003 116.854 139H25.1458C21.8428 139.003 18.5715 138.352 15.5193 137.085C12.467 135.817 9.69374 133.958 7.35811 131.613C5.02249 129.268 3.17038 126.483 1.90778 123.419C0.645189 120.355 -0.00310201 117.07 1.11593e-05 113.754V25.2457C-0.00310201 21.9295 0.645189 18.6453 1.90778 15.5809C3.17038 12.5166 5.02249 9.73225 7.35811 7.38734C9.69374 5.04244 12.467 3.18297 15.5193 1.91536C18.5715 0.647752 21.8428 -0.00311434 25.1458 1.12036e-05Z" fill="#E6E86E"/>
<circle cx="78.0179" cy="70.2298" r="56.1932" fill="#181F28"/>
<path d="M18.4917 70.3364C18.4917 122.116 70.1244 130.532 70.9836 129.673C38.1973 129.673 8 103.107 8 70.3364C8 37.5658 38.1973 11 70.9836 11C70.9836 11 18.4917 18.5566 18.4917 70.3364Z" fill="#181F28"/>
<rect x="21.8247" y="58.4382" width="112.386" height="6.34308" fill="#E6E86E"/>
<rect x="21.8247" y="67.0583" width="112.386" height="6.34308" fill="#E6E86E"/>
<rect x="21.8247" y="75.6785" width="112.386" height="6.34308" fill="#E6E86E"/>
</svg>
