<svg width="143" height="139" viewBox="0 0 143 139" fill="none" xmlns="http://www.w3.org/2000/svg">
<g clip-path="url(#clip0_41_146)">
<path d="M25.3229 1.12036e-05H117.677C121.003 -0.00311434 124.298 0.647752 127.371 1.91536C130.445 3.18297 133.238 5.04244 135.59 7.38734C137.942 9.73225 139.807 12.5166 141.079 15.5809C142.35 18.6453 143.003 21.9295 143 25.2457V113.754C143.003 117.07 142.35 120.355 141.079 123.419C139.807 126.483 137.942 129.268 135.59 131.613C133.238 133.958 130.445 135.817 127.371 137.085C124.298 138.352 121.003 139.003 117.677 139H25.3229C21.9966 139.003 18.7023 138.352 15.6286 137.085C12.5548 135.817 9.762 133.958 7.40993 131.613C5.05786 129.268 3.1927 126.483 1.92122 123.419C0.649733 120.355 -0.00312386 117.07 1.12379e-05 113.754V25.2457C-0.00312386 21.9295 0.649733 18.6453 1.92122 15.5809C3.1927 12.5166 5.05786 9.73225 7.40993 7.38734C9.762 5.04244 12.5548 3.18297 15.6286 1.91536C18.7023 0.647752 21.9966 -0.00311434 25.3229 1.12036e-05Z" fill="#E6E86E"/>
<path d="M32.175 97.4782V36.3538C32.175 35.938 32.3538 35.7004 32.7709 35.7004C33.7838 35.7004 34.7371 35.7004 36.1075 35.641C37.478 35.5816 39.0271 35.5816 40.6359 35.5222C42.2446 35.4628 43.9726 35.4628 45.8196 35.4034C47.6667 35.344 49.4542 35.344 51.2417 35.344C56.1276 35.344 60.1792 35.938 63.5159 37.1854C66.507 38.1981 69.2343 39.862 71.5 42.0564C73.42 43.9767 74.9034 46.2862 75.8496 48.8282C76.7516 51.3037 77.2153 53.9166 77.2201 56.5504C77.2201 61.6589 76.0284 65.8765 73.6451 69.203C71.2507 72.5249 67.9077 75.0504 64.0521 76.45C60.0005 77.935 55.5317 78.4696 50.6459 78.4696C49.2159 78.4696 48.2626 78.4696 47.6667 78.4102C47.0709 78.3508 46.2367 78.3508 45.1046 78.3508V97.4188C45.1179 97.5165 45.1114 97.6159 45.0854 97.7111C45.0595 97.8063 45.0146 97.8953 44.9535 97.9729C44.8923 98.0504 44.8162 98.115 44.7296 98.1626C44.643 98.2103 44.5476 98.2402 44.4492 98.2504H32.89C32.4134 98.2504 32.175 98.0128 32.175 97.4782ZM45.1642 47.1649V67.1239C45.9984 67.1833 46.773 67.2427 47.488 67.2427H50.6459C52.9719 67.2455 55.284 66.8847 57.498 66.1735C59.3974 65.6166 61.0944 64.5231 62.3838 63.0252C63.635 61.5401 64.2309 59.5205 64.2309 56.9068C64.2869 55.0506 63.8116 53.2168 62.8605 51.6201C61.867 50.0777 60.4059 48.8916 58.6896 48.2342C56.4528 47.3608 54.0594 46.9563 51.6588 47.0461C50.1096 47.0461 48.7392 47.0461 47.6071 47.1055C46.7927 47.0525 45.9751 47.0723 45.1642 47.1649Z" fill="#181F28"/>
<path d="M114.4 63.5005C112.601 62.5558 110.674 61.8756 108.68 61.4808C106.49 60.9863 104.252 60.7274 102.007 60.7086C100.801 60.6671 99.5957 60.8073 98.4318 61.1244C97.6896 61.2784 97.0313 61.7018 96.5847 62.3124C96.2836 62.7944 96.1189 63.3486 96.108 63.9163C96.1357 64.4814 96.3446 65.0227 96.7038 65.4607C97.2686 66.1211 97.9566 66.6658 98.7297 67.0646C100.1 67.7774 101.53 68.4308 102.96 69.0248C106.179 70.1052 109.259 71.5608 112.136 73.3612C114.093 74.5878 115.711 76.2826 116.843 78.2915C117.8 80.1865 118.271 82.2888 118.213 84.4099C118.262 87.2175 117.451 89.9733 115.89 92.3103C114.228 94.6815 111.909 96.5187 109.216 97.597C106.297 98.8445 102.722 99.4979 98.4318 99.4979C95.7117 99.5089 92.9972 99.2502 90.3284 98.7257C88.227 98.3637 86.1832 97.7244 84.2509 96.8248C84.0432 96.7209 83.8704 96.5587 83.754 96.3582C83.6375 96.1577 83.5825 95.9275 83.5955 95.6962V85.3603C83.5904 85.2588 83.6092 85.1575 83.6507 85.0646C83.6921 84.9717 83.7548 84.8899 83.8338 84.8257C83.9178 84.7769 84.0152 84.7564 84.1118 84.7671C84.2084 84.7778 84.2989 84.8191 84.3701 84.8851C86.6653 86.234 89.1583 87.2162 91.7584 87.7958C94.0542 88.3913 96.4171 88.6908 98.7893 88.6868C101.053 88.6868 102.662 88.3898 103.735 87.8552C104.213 87.6349 104.618 87.2832 104.903 86.8413C105.188 86.3994 105.341 85.8856 105.343 85.3603C105.343 84.5287 104.867 83.7565 103.913 82.9842C102.96 82.212 100.994 81.321 98.0743 80.1923C95.0792 79.1402 92.2348 77.7024 89.6134 75.9154C87.7464 74.5888 86.1994 72.8639 85.0851 70.8663C84.1342 68.9902 83.6634 66.9087 83.7147 64.8073C83.7235 62.2726 84.4237 59.788 85.7405 57.6197C87.2541 55.2351 89.4267 53.3373 91.9968 52.1547C94.7972 50.7291 98.3126 50.0757 102.543 50.0757C105.015 50.0764 107.485 50.2551 109.931 50.6103C111.691 50.8476 113.412 51.3067 115.056 51.9765C115.317 52.069 115.532 52.2613 115.651 52.5112C115.72 52.743 115.76 52.9824 115.771 53.224V62.9065C115.771 63.0219 115.745 63.1359 115.693 63.2392C115.641 63.3424 115.566 63.432 115.473 63.5005C115.126 63.6247 114.747 63.6247 114.4 63.5005Z" fill="#181F28"/>
</g>
<defs>
<clipPath id="clip0_41_146">
<rect width="143" height="139" fill="white"/>
</clipPath>
</defs>
</svg>
